<svg t="1684225223405" class="icon" viewBox="0 0 1024 1024" version="1.1" xmlns="http://www.w3.org/2000/svg" p-id="2431" width="200" height="200"><path d="M661.333333 294.4l42.666667 6.4C714.666667 234.666667 774.4 192 853.333333 192V149.333333c-100.266667 0-177.066667 57.6-192 145.066667zM170.666667 149.333333v42.666667c78.933333 0 138.666667 42.666667 149.333333 110.933333l42.666667-6.4C347.733333 206.933333 270.933333 149.333333 170.666667 149.333333z" fill="#8E24AA" p-id="2432"></path><path d="M512 217.6c-202.666667 0-369.066667 202.666667-369.066667 405.333333S309.333333 917.333333 512 917.333333s369.066667-91.733333 369.066667-294.4-166.4-405.333333-369.066667-405.333333z" fill="#BA68C8" p-id="2433"></path><path d="M853.333333 170.666667m-64 0a64 64 0 1 0 128 0 64 64 0 1 0-128 0Z" fill="#BA68C8" p-id="2434"></path><path d="M170.666667 170.666667m-64 0a64 64 0 1 0 128 0 64 64 0 1 0-128 0Z" fill="#BA68C8" p-id="2435"></path><path d="M512 704c-96 0-170.666667-74.666667-170.666667-170.666667s74.666667-170.666667 170.666667-170.666666 170.666667 74.666667 170.666667 170.666666-74.666667 170.666667-170.666667 170.666667z" fill="#B3E5FC" p-id="2436"></path><path d="M512 533.333333m-85.333333 0a85.333333 85.333333 0 1 0 170.666666 0 85.333333 85.333333 0 1 0-170.666666 0Z" fill="#3F51B5" p-id="2437"></path><path d="M565.333333 480m-32 0a32 32 0 1 0 64 0 32 32 0 1 0-64 0Z" fill="#FFFFFF" p-id="2438"></path><path d="M659.2 810.666667s-70.4 36.266667-147.2 36.266666-147.2-36.266667-147.2-36.266666h294.4z" fill="#6A1B9A" p-id="2439"></path></svg>
